<?xml version="1.0" encoding="UTF-8"?>
<svg id="Layer_1" data-name="Layer 1" xmlns="http://www.w3.org/2000/svg" xmlns:xlink="http://www.w3.org/1999/xlink" viewBox="0 0 400 400">
  <defs>
    <style>
      .cls-1 {
        fill: url(#linear-gradient);
      }

      .cls-1, .cls-2, .cls-3, .cls-4 {
        stroke-width: 0px;
      }

      .cls-2 {
        fill: #600f20;
      }

      .cls-3 {
        fill: url(#linear-gradient-2);
      }

      .cls-4 {
        fill: #741b2b;
      }
    </style>
    <linearGradient id="linear-gradient" x1="261.84" y1="293.43" x2="261.84" y2="251.28" gradientTransform="translate(-65.07 -248.61) rotate(-.33)" gradientUnits="userSpaceOnUse">
      <stop offset="0" stop-color="#600f20"/>
      <stop offset=".33" stop-color="#621021"/>
      <stop offset=".53" stop-color="#6a1326"/>
      <stop offset=".7" stop-color="#79192e"/>
      <stop offset=".84" stop-color="#8d2139"/>
      <stop offset=".97" stop-color="#a72b48"/>
      <stop offset="1" stop-color="#ae2e4c"/>
    </linearGradient>
    <linearGradient id="linear-gradient-2" x1="262.43" y1="619.83" x2="262.43" y2="357.53" gradientTransform="translate(-65.07 -248.61) rotate(-.33)" gradientUnits="userSpaceOnUse">
      <stop offset="0" stop-color="#741b2b"/>
      <stop offset=".1" stop-color="#821f36"/>
      <stop offset=".33" stop-color="#9f274b"/>
      <stop offset=".56" stop-color="#b42e5b"/>
      <stop offset=".78" stop-color="#c03164"/>
      <stop offset="1" stop-color="#c53368"/>
    </linearGradient>
  </defs>
  <circle class="cls-4" cx="120.68" cy="252.47" r="8.85"/>
  <circle class="cls-4" cx="144.14" cy="225.77" r="14.76"/>
  <path class="cls-1" d="m234.31.93l-36.07.21-36.07.21c-1.05,1.49-2.21,3.67-1.96,6.17.22,2.22,1.43,3.44,2.68,5.64,1.6,2.81,2.07,5.12,2.91,9.22,2.22,10.84-1.76,17.95,1.32,20.61.38.33.93.5,1.7.47,14.94-.5,22.36-.75,29.66-.82.07,0,.15,0,.22,0v-.5s0,.5,0,.5c7.23-.01,14.65.15,29.45.48.77.02,1.32-.16,1.69-.49,3.05-2.7-1.01-9.77,1.08-20.63.79-4.11,1.24-6.42,2.8-9.25,1.23-2.21,2.42-3.45,2.61-5.67.22-2.5-.96-4.67-2.03-6.14Z"/>
  <path class="cls-2" d="m297.81,178.48c-10.47-9.15-22.59-17.08-31.04-27.83-9.84-12.55-18.72-26.81-23.97-41.77-6.12-17.29,1.79-31.39,16.38-40.56.17-.11.34-.26.51-.39,4.07-1.64,6.86-5.76,6.45-10.49-.47-5.42-5.29-9.44-10.73-9.41l-56.72.33h0l-56.67.33c-5.44.03-10.21,4.1-10.62,9.53-.36,4.74,2.48,8.83,6.57,10.42.17.13.34.28.51.38,14.69,9,22.77,23.01,16.85,40.37-5.08,15.02-13.79,29.39-23.49,42.05-8.32,10.85-20.34,18.92-30.71,28.19-37.29,33.25-53.46,74.1-40.25,123.11,12.76,47.27,45.96,76.18,92.05,89.07,16.27,4.54,32.25,7.01,47.8,7.27h0s.02,0,.02,0c0,0,.02,0,.03,0h0c15.55-.44,31.5-3.09,47.71-7.83,45.94-13.43,78.79-42.73,91-90.14,12.64-49.16-4.01-89.82-41.68-122.63Zm-97.01,194.54c-.06,0-.12,0-.17,0h0s-.01,0-.02,0c0,0-.02,0-.03,0h0c-.06,0-.12,0-.17,0-66.83.39-121.28-46.2-121.62-104.07-.17-29.75,14.02-56.67,36.91-75.88,0,0,0,0,0,0,8.4-9.27,17.29-18.18,25.94-27.11,18.89-19.5,29.65-41.91,31.45-68.84.16-2.33.8-4.64,1.4-7.18.23-1.01,1.11-1.75,2.14-1.75l22.33-.13h0l22.29-.13c1.03,0,1.92.73,2.16,1.73.63,2.53,1.3,4.83,1.49,7.16,2.11,26.91,13.13,49.18,32.25,68.46,8.75,8.82,17.75,17.63,26.25,26.8,0,0,0,0,0,0,23.11,18.94,37.62,45.69,37.79,75.45.34,57.87-53.57,105.09-120.4,105.48Z"/>
  <path class="cls-3" d="m120.09,198.02c-21.82,18.32-35.33,43.98-35.17,72.35.32,55.22,52.28,99.68,116.06,99.31s115.21-45.44,114.89-100.66c-.12-19.89-6.94-38.37-18.59-53.87,8.92,12.62,15.07,26.91,16.64,43.97,1.84,20.02-5.23,44.05-15.2,55.32-1.4,1.59-4.05.36-3.67-1.75.19-1.04.41-2.23.63-3.47,1.12-6.43-6.79-10.49-11.27-5.76-1.46,1.56-3,3.03-4.65,4.42-2.24,1.9-5.25-1.21-3.29-3.42,16.84-19.14,23.75-41.91,16.07-69.24-3.42-12.23-11.11-21.85-22.75-26.88-2.12-.92-3.9,1.83-2.29,3.45,3.37,3.39,6.63,6.78,9.3,10.56,9.77,13.8,7.85,32.91-3.66,44.47-13.16,13.26-38.5,14.45-55.3,2.66-13.41-9.44-17.64-25.13-10.45-38.67,7.91-14.8,27.61-23.09,41.2-14.94,1.07.64,6.61,3.59,7.88,9.22,1.56,6.81-4.03,13.46-5.71,15.47-3.5,4.19-6.45,5.16-6.16,5.73.71,1.43,19.87-2.12,22.29-12.49.88-3.75-.75-7.12-1.6-8.89-4.28-8.76-14.15-11.63-17.56-12.71-23.79-7.58-57.98,7.66-52.39,47.62.18,1.24-.61,2.43-1.82,2.69-1.35.32-2.65-.6-2.86-1.98-1.41-9.48-4.2-19.18-2.7-28.18,2.18-12.8,7.99-25.06,12.94-37.31,3.66-9.05,6.38-17.97,7.34-26.71l-.08-13.71c-1.29-9.83-5.45-19.39-13.78-28.63-4.62-5.13-7.36-10.43-4.79-15.43.97-1.89-1.21-3.91-2.95-2.74-6.59,4.38-6.02,10.94,1.56,21.65,13.6,19.24,14.18,44.76,1.5,64.6-2.26,3.56-4.41,7.24-6.81,10.71-11.23,16.23-15.97,33.67-13.46,53.73,3.28,26.43-16.56,43.7-43.14,39.51-11.14-1.74-18.63-7.1-24.14-14.93-1.34-1.94-4.34-.45-3.71,1.82,1.55,5.6,3.58,10.94,6.37,15.82,3.3,5.84,7.75,11,12.57,16.49,1.62,1.85-.73,4.54-2.77,3.14-30.23-20.36-38.57-59.49-16.94-93.64,6.44-10.19,14.16-19.62,22.39-28.71Z"/>
</svg>