<?xml version="1.0" encoding="UTF-8"?>
<svg id="Layer_1" data-name="Layer 1" xmlns="http://www.w3.org/2000/svg" xmlns:xlink="http://www.w3.org/1999/xlink" viewBox="0 0 1300 400">
  <defs>
    <style>
      .cls-1 {
        fill: url(#linear-gradient);
      }

      .cls-1, .cls-2 {
        stroke-width: 0px;
      }

      .cls-3 {
        letter-spacing: .18em;
      }

      .cls-2 {
        fill: url(#linear-gradient-2);
      }

      .cls-4 {
        letter-spacing: .2em;
      }

      .cls-5 {
        fill: #741b2b;
        font-family: RedHatText-Regular, 'Red Hat Text';
        font-size: 80px;
      }
    </style>
    <linearGradient id="linear-gradient" x1="408.31" y1="370.25" x2="887.65" y2="-109.09" gradientUnits="userSpaceOnUse">
      <stop offset="0" stop-color="#741b2b"/>
      <stop offset=".1" stop-color="#821f36"/>
      <stop offset=".33" stop-color="#9f274b"/>
      <stop offset=".56" stop-color="#b42e5b"/>
      <stop offset=".78" stop-color="#c03164"/>
      <stop offset="1" stop-color="#c53368"/>
    </linearGradient>
    <linearGradient id="linear-gradient-2" x1="534.29" y1="335.71" x2="765.71" y2="104.29" gradientUnits="userSpaceOnUse">
      <stop offset="0" stop-color="#741b2b"/>
      <stop offset=".2" stop-color="#882136"/>
      <stop offset=".47" stop-color="#9d2842"/>
      <stop offset=".74" stop-color="#a92c49"/>
      <stop offset="1" stop-color="#ae2e4c"/>
    </linearGradient>
  </defs>
  <path class="cls-1" d="m311.62,172.82c-3.26,0-6.18-1.07-8.78-3.21-2.59-2.14-5.32-5.49-8.16-10.07l-13.28-21.37c6.61-3.46,11.68-7.65,15.19-12.59,3.51-4.93,5.26-10.45,5.26-16.56,0-8.55-3.11-15.06-9.31-19.54-6.21-4.48-15.16-6.72-26.86-6.72-3.26.2-6.36.36-9.31.46-2.54.1-5.14.18-7.78.23-2.65.05-4.73.08-6.26.08h-5.57c-2.19,0-4.3-.05-6.33-.15-2.44,0-4.89-.05-7.33-.15l-1.22,9.31.76,1.22c.61,0,1.22-.05,1.83-.15.51,0,1.09-.02,1.76-.08.66-.05,1.24-.08,1.76-.08,1.93,0,3.23.51,3.89,1.53.66,1.02.99,3,.99,5.95l-.15,58.76c0,4.38-.74,7.4-2.21,9.08-1.48,1.68-4.35,2.82-8.62,3.43l-1.37,10.23c2.44-.2,4.94-.36,7.48-.46,2.14-.1,4.48-.18,7.02-.23,2.54-.05,4.99-.08,7.33-.08,1.73,0,3.76.02,6.11.08,2.34.05,4.58.1,6.72.15,2.14.05,4.68.13,7.63.23l1.53-9.46-.61-.92c-2.44-.1-4.38-.28-5.8-.53-1.43-.25-2.52-.79-3.28-1.6-.76-.81-1.25-1.98-1.45-3.51-.2-1.53-.3-3.56-.3-6.11l.15-16.79h10.68l13.13,26.56c4.37,9.46,9.92,14.19,16.64,14.19l18.16-1.68,1.07-8.09-1.07-1.37Zm-33.04-52.43c-1.07,2.29-2.32,4.17-3.74,5.65-1.43,1.48-2.85,2.59-4.27,3.36-1.43.76-2.54,1.3-3.36,1.6l-13.74-1.53c.1-4.68.23-9.44.38-14.27.15-4.83.43-10.3.84-16.41.1-1.42.31-2.34.61-2.75.31-.41,1.02-.61,2.14-.61,15.16,0,22.74,5.49,22.74,16.48,0,3.36-.53,6.18-1.6,8.47Zm72.27,39.91c0,2.04.1,3.66.3,4.88.2,1.22.64,2.14,1.3,2.75.66.61,1.65,1.02,2.98,1.22,1.32.2,3.05.31,5.19.31,4.68,0,8.47-.18,11.37-.53,2.9-.36,5.19-1.14,6.87-2.37,1.68-1.22,2.9-2.98,3.66-5.27.76-2.29,1.4-5.37,1.91-9.23l12.97-1.07,1.07,1.53c-.51,2.75-1.02,5.65-1.53,8.7-.51,2.65-.99,5.67-1.45,9.08-.46,3.41-.89,6.94-1.3,10.61l-1.37,1.68c-5.6-.1-11.19-.25-16.79-.46-4.88-.2-10.05-.36-15.49-.46-5.44-.1-10.56-.15-15.34-.15-3.46,0-6.77.08-9.92.23-3.16.15-5.95.33-8.39.53-2.85.31-5.6.56-8.24.76l1.22-10.38c4.27-.61,7.17-1.83,8.7-3.66,1.53-1.83,2.29-4.99,2.29-9.46l.15-57.85c0-3.26-.33-5.44-.99-6.56-.66-1.12-2.01-1.68-4.05-1.68-.51,0-.99.03-1.45.08-.46.05-.94.08-1.45.08-.51.1-1.07.15-1.68.15l-1.07-1.37,1.22-9.31c3.15.1,6.41.2,9.77.31,2.85.1,5.9.15,9.16.15h9.31c21.57,0,37.04-.61,46.4-1.83l1.22,1.68c-.61,2.65-1.12,5.49-1.53,8.55-.41,2.65-.79,5.62-1.14,8.93-.36,3.31-.64,6.74-.84,10.3l-14.04.92c0-.81.05-1.58.15-2.29,0-.61.02-1.27.08-1.98.05-.71.08-1.32.08-1.83,0-2.14-.2-3.82-.61-5.04-.41-1.22-1.27-2.19-2.6-2.9-1.32-.71-3.26-1.17-5.8-1.37-2.55-.2-5.95-.3-10.23-.3-1.83,0-3.26.05-4.28.15-1.02.1-1.81.33-2.36.69-.56.36-.94.87-1.14,1.53-.2.66-.31,1.55-.31,2.67l-1.07,23.66c1.63,0,3.84.03,6.64.08,2.8.05,5.32.08,7.56.08,1.22,0,2.82-.05,4.81-.15,1.99-.1,3.94-.25,5.88-.46,2.24-.2,4.58-.41,7.02-.61l1.22,1.37-2.14,13.13c-2.34,0-4.68-.05-7.02-.15-2.04-.1-4.2-.18-6.49-.23-2.29-.05-4.4-.08-6.33-.08-2.34,0-4.53.1-6.56.31-2.04.2-3.72.41-5.04.61-.2,5.6-.33,10.05-.38,13.36-.05,3.31-.08,5.98-.08,8.01Zm151.56-50.98c-2.24-5.7-5.47-10.51-9.69-14.42-4.22-3.92-9.39-6.92-15.49-9.01-6.11-2.08-13.03-3.13-20.76-3.13-3.26.2-6.41.36-9.46.46-2.65.1-5.34.18-8.09.23-2.75.05-4.99.08-6.72.08h-5.65c-2.24,0-4.38-.05-6.41-.15-2.44-.1-4.94-.2-7.48-.31l-1.22,9.46.92,1.37c.61,0,1.22-.05,1.83-.15.51,0,1.04-.02,1.6-.08.56-.05,1.09-.08,1.6-.08,1.93,0,3.23.56,3.89,1.68.66,1.12.99,3.31.99,6.56l-.15,57.85c0,4.27-.74,7.3-2.21,9.08-1.48,1.78-4.4,3.08-8.78,3.89l-1.07,10.38c2.24-.21,4.53-.46,6.87-.76,2.04-.2,4.17-.38,6.41-.53,2.24-.15,4.37-.23,6.41-.23,2.14,0,4.55.1,7.25.31,2.69.2,5.21.41,7.55.61,2.75.31,5.49.61,8.24.92,7.73,0,14.85-1.35,21.37-4.04,6.51-2.7,12.11-6.46,16.79-11.3,4.68-4.83,8.32-10.61,10.91-17.32s3.89-14.09,3.89-22.13c0-7.12-1.12-13.53-3.36-19.23Zm-27.47,51.59c-4.58,6.11-11.35,9.16-20.3,9.16-2.54,0-4.63-.15-6.26-.46-1.63-.3-2.93-.86-3.89-1.68-.97-.81-1.63-1.93-1.98-3.36-.36-1.42-.53-3.2-.53-5.34,0-6.82.18-15.21.53-25.18.36-9.97.84-21.42,1.45-34.34.1-1.42.43-2.39.99-2.9.56-.51,1.7-.76,3.43-.76,11.4,0,19.82,2.95,25.26,8.85,5.44,5.9,8.17,15.37,8.17,28.39,0,12.31-2.29,21.52-6.87,27.63Zm147.36-59.6c-1.17-3.51-3.18-6.64-6.03-9.39-2.85-2.75-6.64-4.96-11.37-6.64-4.73-1.68-10.66-2.52-17.78-2.52-3.46.2-6.67.36-9.62.46-2.65.1-5.21.18-7.71.23-2.49.05-4.45.08-5.88.08h-5.26c-1.88,0-3.72-.02-5.5-.08-1.78-.05-3.41-.08-4.88-.08h-3.59l-1.22,9.16.76,1.22c.61,0,1.22-.05,1.83-.15.51,0,1.09-.02,1.76-.08.66-.05,1.24-.08,1.76-.08,1.93,0,3.23.56,3.89,1.68.66,1.12.99,3.31.99,6.56l-.15,58c0,4.27-.74,7.28-2.21,9.01-1.48,1.73-4.25,2.95-8.32,3.66l-1.22,10.38c.1,0,1.12-.08,3.05-.23,1.93-.15,4.25-.3,6.95-.46,2.69-.15,5.47-.28,8.32-.38,2.85-.1,5.24-.15,7.17-.15,1.42,0,3.23.02,5.42.08,2.19.05,4.3.13,6.33.23,2.44.1,4.94.15,7.48.15l1.53-9.92-.61-.92c-.71.1-1.48.2-2.29.31-.71.1-1.45.15-2.21.15h-2.21c-1.53,0-2.75-.18-3.66-.53-.92-.36-1.63-1.02-2.14-1.98-.51-.97-.84-2.31-.99-4.04-.15-1.73-.23-4.02-.23-6.87l.15-11.3h12.97c4.78,0,9.39-.94,13.81-2.82,4.43-1.88,8.32-4.43,11.68-7.63,3.36-3.21,6.03-6.89,8.01-11.07,1.99-4.17,2.98-8.55,2.98-13.13,0-3.76-.59-7.4-1.76-10.91Zm-33.96,33.81l-13.43-1.83c.2-5.8.41-11.68.61-17.63.2-5.95.51-11.62.92-17.02.1-1.32.33-2.11.69-2.37.35-.25,1.24-.38,2.67-.38,7.83,0,13.53,1.48,17.1,4.43,3.56,2.95,5.34,7.63,5.34,14.04,0,11.91-4.63,18.83-13.89,20.76Zm131.95-25.64c-1.99-5.9-4.89-10.91-8.7-15.04-3.82-4.12-8.47-7.27-13.97-9.46-5.49-2.19-11.7-3.28-18.62-3.28-7.53,0-14.37,1.27-20.53,3.82-6.16,2.55-11.42,6.16-15.8,10.84-4.38,4.68-7.76,10.3-10.15,16.87-2.39,6.56-3.59,13.87-3.59,21.9,0,7.43,1.02,14.12,3.05,20.07,2.03,5.95,4.93,11.02,8.7,15.19,3.76,4.17,8.34,7.38,13.74,9.62,5.39,2.24,11.5,3.36,18.32,3.36,7.63,0,14.55-1.3,20.76-3.89,6.21-2.59,11.52-6.23,15.95-10.91,4.43-4.68,7.83-10.33,10.23-16.94,2.39-6.61,3.59-13.99,3.59-22.13,0-7.43-.99-14.09-2.97-20Zm-26.87,52.2c-4.02,5.6-9.64,8.39-16.86,8.39-7.63,0-13.54-3.46-17.71-10.38-4.17-6.92-6.26-17.15-6.26-30.68,0-10.48,1.93-18.52,5.8-24.12,3.86-5.59,9.31-8.39,16.33-8.39,7.94,0,14.04,3.43,18.32,10.3,4.28,6.87,6.41,17.12,6.41,30.76,0,10.48-2.01,18.52-6.03,24.12Zm65.1-66.09c-4.17.1-7.43.38-9.77.84-2.34.46-4.15,1.37-5.42,2.75-1.27,1.37-2.16,3.33-2.67,5.88-.51,2.54-1.02,6-1.53,10.38l-12.82.92c.2-3.46.46-7.07.76-10.84.2-3.15.38-6.66.53-10.53.15-3.87.28-7.68.38-11.45l1.68-1.68,15.41,1.68h47.47l15.72-1.68,1.68,1.68c.1,3.87.23,7.68.38,11.45.15,3.77.33,7.17.53,10.23.2,3.56.41,6.97.61,10.23l-12.82.92c-.61-4.68-1.17-8.37-1.68-11.07-.51-2.7-1.37-4.73-2.6-6.11-1.22-1.37-2.93-2.29-5.11-2.75-2.19-.46-5.21-.74-9.08-.84-.2,3.36-.41,7.61-.61,12.75-.2,5.14-.38,10.66-.53,16.56-.15,5.9-.28,11.98-.38,18.24-.1,6.26-.15,12.19-.15,17.78,0,3.87.63,6.56,1.91,8.09,1.27,1.53,3.43,2.29,6.49,2.29h3.13c.97,0,1.85-.05,2.67-.15.81-.1,1.58-.2,2.29-.31l.61.76-1.37,10.53c-3.56-.1-7.02-.2-10.38-.31-2.85-.1-5.75-.18-8.7-.23-2.95-.05-5.44-.08-7.48-.08-2.14,0-4.68.05-7.63.15-2.95.1-5.75.2-8.4.31-3.16.2-6.36.36-9.61.46l1.22-10.07c3.36-.31,6.03-.71,8.01-1.22,1.99-.51,3.51-1.32,4.58-2.44,1.07-1.12,1.78-2.64,2.14-4.58.36-1.93.53-4.53.53-7.78v-60.75Zm93.56,5.34c-.3,4.58-.56,9.54-.76,14.88-.2,5.34-.38,10.71-.53,16.1-.15,5.39-.28,10.61-.38,15.64-.1,5.04-.15,9.59-.15,13.66s.38,6.95,1.14,8.32c.76,1.37,2.31,2.06,4.65,2.06h2.44c.81,0,1.53-.05,2.14-.15.71-.1,1.37-.2,1.99-.31l.76,1.07-1.37,9.77c-3.05,0-6.01-.05-8.85-.15-2.44-.1-4.94-.18-7.48-.23-2.54-.05-4.68-.08-6.41-.08-2.14,0-4.45.08-6.94.23-2.49.15-4.81.33-6.95.53-2.54.2-5.04.41-7.48.61l1.07-9.92c4.48-.92,7.45-2.24,8.93-3.97,1.47-1.73,2.21-4.68,2.21-8.85l.15-58.76c0-3.15-.36-5.27-1.07-6.33-.71-1.07-2.19-1.6-4.43-1.6-.51,0-1.1.03-1.76.08-.66.05-1.25.08-1.76.08h-1.83l-.76-1.22,1.07-9.01h3.97c1.63,0,3.43.03,5.42.08,1.99.05,4.02.08,6.11.08h5.88c1.73,0,3.79-.02,6.18-.08,2.39-.05,4.76-.18,7.1-.38,2.65-.2,5.44-.41,8.39-.61l-.92,10.23c-3.87.51-6.44,1.3-7.71,2.37-1.28,1.07-1.96,3.03-2.06,5.88Zm111.65,8.55c-1.99-5.9-4.89-10.91-8.7-15.04-3.82-4.12-8.47-7.27-13.97-9.46-5.49-2.19-11.7-3.28-18.62-3.28-7.53,0-14.37,1.27-20.53,3.82-6.16,2.55-11.42,6.16-15.8,10.84-4.38,4.68-7.76,10.3-10.15,16.87-2.39,6.56-3.59,13.87-3.59,21.9,0,7.43,1.02,14.12,3.05,20.07,2.03,5.95,4.93,11.02,8.7,15.19,3.76,4.17,8.34,7.38,13.74,9.62,5.39,2.24,11.5,3.36,18.32,3.36,7.63,0,14.55-1.3,20.76-3.89,6.21-2.59,11.52-6.23,15.95-10.91,4.43-4.68,7.83-10.33,10.23-16.94,2.39-6.61,3.59-13.99,3.59-22.13,0-7.43-.99-14.09-2.97-20Zm-26.87,52.2c-4.02,5.6-9.64,8.39-16.86,8.39-7.63,0-13.54-3.46-17.71-10.38-4.17-6.92-6.26-17.15-6.26-30.68,0-10.48,1.93-18.52,5.8-24.12,3.87-5.59,9.31-8.39,16.33-8.39,7.94,0,14.04,3.43,18.32,10.3,4.27,6.87,6.41,17.12,6.41,30.76,0,10.48-2.01,18.52-6.03,24.12Zm115.01-16.03l-.31-45.64c-.1-2.34-.53-4.02-1.3-5.04-.76-1.02-2.01-1.53-3.74-1.53-1.12,0-2.19.03-3.2.08-1.02.05-1.68.08-1.98.08l-.61-1.22,1.07-9.46c2.44.1,4.88.21,7.33.31,2.03.1,4.17.18,6.41.23,2.24.05,4.22.08,5.95.08,1.83,0,3.82-.02,5.95-.08,2.14-.05,4.07-.13,5.8-.23,2.03-.1,4.12-.25,6.26-.46l-.76,10.23c-3.36.51-5.78,1.48-7.25,2.9-1.48,1.43-2.27,3.66-2.37,6.72l-1.98,81.05-16.18,1.98c-6-9.56-11.68-18.44-17.02-26.63-5.34-8.19-10.05-15.34-14.12-21.44-4.78-7.12-9.21-13.69-13.28-19.69h-1.53l-.15,47.01c0,2.55.38,4.33,1.14,5.34.76,1.02,2.11,1.53,4.04,1.53h1.76c.76,0,1.5-.05,2.21-.15.81-.1,1.68-.2,2.6-.31l.92,1.07-1.53,9.77c-2.44-.1-4.89-.2-7.33-.31-2.04-.1-4.2-.18-6.49-.23-2.29-.05-4.25-.08-5.88-.08-2.04,0-4.17.05-6.41.15-2.24.1-4.27.25-6.11.46-2.14.2-4.22.41-6.26.61l1.22-10.23c3.05-.41,5.29-1.35,6.72-2.82,1.42-1.47,2.19-3.74,2.29-6.79l1.99-60.29c0-3.26-.82-5.52-2.44-6.79-1.63-1.27-4.94-2.16-9.92-2.67l-1.22-1.53,1.07-8.85c2.04.2,4.07.36,6.11.46,1.73.1,3.61.18,5.65.23,2.04.05,4.02.08,5.95.08,1.63,0,3.31-.02,5.04-.08,1.73-.05,3.31-.13,4.73-.23,1.73-.1,3.36-.2,4.88-.31,4.99,8.14,9.9,15.98,14.73,23.51,4.83,7.53,9.18,14.19,13.05,19.99,4.48,6.82,8.8,13.23,12.97,19.23h1.53Z"/>
  <text class="cls-5" transform="translate(452.92 317.52)"><tspan class="cls-3" x="0" y="0">S</tspan><tspan class="cls-4" x="64.64" y="0">TUDIO</tspan></text>
  <path class="cls-2" d="m876.43,220c-37.74,2.07-75.48,3.15-113.21,3.89-37.74.73-75.48,1.12-113.21,1.11-37.74.03-75.48-.37-113.21-1.1-37.74-.73-75.48-1.82-113.21-3.9,37.74-2.08,75.48-3.17,113.21-3.9,37.74-.73,75.48-1.12,113.21-1.1,37.74,0,75.48.38,113.21,1.11,37.74.74,75.48,1.82,113.21,3.89Z"/>
</svg>